<svg width="800" height="800" xmlns="http://www.w3.org/2000/svg" version="1.1" xml:space="preserve">
 <g>
  <title>Layer 1</title>
  <g id="svg_1" stroke="null">
   <path class="st0" d="m703.8606,524.94619l-394.75356,0c-11.09788,0 -20.05406,-8.29025 -20.05406,-18.56294l0,0c0,-10.2727 8.95618,-18.56294 20.05406,-18.56294l374.6995,0c11.09788,0 20.05406,8.29025 20.05406,18.56294l0,18.56294z" fill="#56aaff" id="svg_2" stroke="null"/>
   <rect x="95.81356" y="158.19295" class="st0" width="178.83164" height="37.12588" fill="#aad4ff" id="svg_3" stroke="null"/>
   <path class="st1" d="m163.37434,201.53651l-66.00318,0c-14.79717,0 -26.7712,-11.0837 -26.7712,-24.78062l0,0c0,-13.69693 11.97403,-24.78062 26.7712,-24.78062l66.00318,0c14.79717,0 26.7712,11.0837 26.7712,24.78062l0,0c0.09735,13.69693 -11.87668,24.78062 -26.7712,24.78062z" fill="#005fbf" id="svg_4" stroke="null"/>
   <rect x="271.33308" y="86.6531" transform="matrix(0.963179 -0.130932 0.141449 0.891562 -41.2867 123.062)" class="st0" width="41.2" height="495.7" fill="#aad4ff" id="svg_5" stroke="null"/>
   <path class="st0" d="m703.8606,606.7673l-400.1078,0l0,-37.12588l359.90232,0c22.19576,0 40.20548,16.58049 40.20548,37.12588l0,0z" fill="#aad4ff" id="svg_6" stroke="null"/>
   <circle class="st2" cx="617.02455" cy="620.37412" r="37.12589" fill="#003f7f" id="svg_7" stroke="null"/>
   <circle class="st3" cx="617.02455" cy="620.37412" r="19.73437" fill="#CCCCCC" id="svg_8" stroke="null"/>
   <circle class="st2" cx="386.7922" cy="620.37412" r="37.12589" fill="#003f7f" id="svg_9" stroke="null"/>
   <circle class="st3" cx="386.7922" cy="620.37412" r="19.73437" fill="#CCCCCC" id="svg_10" stroke="null"/>
   <path class="st4" d="m719.24187,266.05625l-435.73784,0c-6.91184,0 -12.55813,-5.22646 -12.55813,-11.62437l0,-38.11711c0,-6.39791 5.64629,-11.62437 12.55813,-11.62437l435.73784,0c6.91184,0 12.55813,5.22646 12.55813,11.62437l0,38.11711c0,6.39791 -5.64629,11.62437 -12.55813,11.62437z" fill="#007fff" id="svg_11" stroke="null"/>
   <path class="st5" d="m690.23162,266.05625l-8.85883,59.74383l-55.78145,0l0,-59.74383l-24.04541,0l0,59.74383l-85.3758,0l0,-59.74383l-23.94806,0l0,59.74383l-85.3758,0l0,-59.74383l-23.94806,0l0,59.74383l-61.52509,0l-8.85883,-59.74383l-26.7712,0l30.8599,204.19235c2.04435,10.18258 11.77933,17.57172 23.16926,17.57172l323.10409,0c11.38993,0 21.22226,-7.38913 23.16926,-17.57172l30.8599,-204.19235l-26.67385,0l0,0l-0.00003,0zm-307.33341,198.51533l-22.97456,0c-10.02703,0 -18.59382,-6.66824 -20.34611,-15.76949l-4.67279,-31.7192l47.99347,0l0,47.48869l-0.00001,0zm0,-69.65608l-51.30336,0l-6.91184,-46.94802l58.2152,0l0,46.94802l0,0zm109.32386,69.65608l-85.3758,0l0,-47.39858l85.3758,0l0,47.39858zm0,-69.65608l-85.3758,0l0,-46.94802l85.3758,0l0,46.94802zm109.32386,69.65608l-85.3758,0l0,-47.39858l85.3758,0l0,47.39858zm0,-69.65608l-85.3758,0l0,-46.94802l85.3758,0l0,46.94802zm61.62244,53.88659c-1.7523,9.10125 -10.31908,15.76949 -20.34611,15.76949l-17.32827,0l0,-47.39858l42.34718,0l-4.67279,31.62909l-0.00001,0zm7.98269,-53.88659l-45.55972,0l0,-46.94802l52.56891,0l-7.00919,46.94802z" fill="#003f7f" id="svg_12" stroke="null"/>
  </g>
 </g>

</svg>